<svg width="840" height="220" viewBox="0 0 840 220" fill="none" xmlns="http://www.w3.org/2000/svg">
  <rect width="840" height="220" rx="28" fill="#0B1F3B" />
  <g transform="translate(28 24)">
    <defs>
      <linearGradient id="w-burgundy" x1="10" y1="8" x2="42" y2="68" gradientUnits="userSpaceOnUse">
        <stop stop-color="#B33A5B" />
        <stop offset="1" stop-color="#800020" />
      </linearGradient>
      <linearGradient id="w-metal" x1="42" y1="8" x2="72" y2="70" gradientUnits="userSpaceOnUse">
        <stop stop-color="#D7DEE7" />
        <stop offset="1" stop-color="#909EAE" />
      </linearGradient>
      <linearGradient id="w-orbit" x1="8" y1="55" x2="76" y2="42" gradientUnits="userSpaceOnUse">
        <stop stop-color="#B33A5B" />
        <stop offset="1" stop-color="#C7D2E0" />
      </linearGradient>
    </defs>

    <path
      d="M13 53C25 20 48 11 66 12C72 12 76 14 76 17C76 21 70 20 66 20C53 20 34 28 20 56C17 62 11 66 8 64C5 62 8 58 13 53Z"
      fill="url(#w-orbit)"
    />
    <path
      d="M18 13C24 10 32 10 36 14C40 18 38 25 32 29C27 32 24 36 25 40C26 44 29 47 35 49C40 51 41 56 37 61C33 66 23 67 18 62C11 55 10 43 11 34C12 25 13 16 18 13Z"
      fill="url(#w-burgundy)"
    />
    <path d="M22 25C24 22 28 20 31 20" stroke="white" stroke-width="3.5" stroke-linecap="round" />
    <path d="M21 37C24 34 29 33 33 34" stroke="white" stroke-width="3.5" stroke-linecap="round" />
    <path d="M21 50C24 47 29 46 33 47" stroke="white" stroke-width="3.5" stroke-linecap="round" />
    <path
      d="M43 14C49 10 58 10 64 15C70 20 72 28 72 38C72 49 68 57 61 61C54 65 46 65 43 60V14Z"
      fill="url(#w-metal)"
    />
    <path d="M50 23H58" stroke="#0B1F3B" stroke-width="3" stroke-linecap="round" />
    <path d="M50 23L45 31" stroke="#0B1F3B" stroke-width="3" stroke-linecap="round" />
    <path d="M58 23L63 31" stroke="#0B1F3B" stroke-width="3" stroke-linecap="round" />
    <path d="M45 31L53 39" stroke="#0B1F3B" stroke-width="3" stroke-linecap="round" />
    <path d="M63 31L55 39" stroke="#0B1F3B" stroke-width="3" stroke-linecap="round" />
    <path d="M53 39L48 49" stroke="#0B1F3B" stroke-width="3" stroke-linecap="round" />
    <path d="M55 39L63 45" stroke="#0B1F3B" stroke-width="3" stroke-linecap="round" />
    <circle cx="45" cy="31" r="4.5" fill="white" stroke="#0B1F3B" stroke-width="2.5" />
    <circle cx="63" cy="31" r="4.5" fill="white" stroke="#0B1F3B" stroke-width="2.5" />
    <circle cx="54" cy="39" r="4.5" fill="white" stroke="#0B1F3B" stroke-width="2.5" />
    <circle cx="48" cy="49" r="4.5" fill="white" stroke="#0B1F3B" stroke-width="2.5" />
    <circle cx="63" cy="45" r="4.5" fill="white" stroke="#0B1F3B" stroke-width="2.5" />
  </g>

  <text x="170" y="92" fill="white" font-family="Avenir Next, Segoe UI, Arial, sans-serif" font-size="68" font-weight="800" letter-spacing="10">
    PRIORITY
  </text>
  <text x="176" y="132" fill="#CFCFCF" font-family="Avenir Next, Segoe UI, Arial, sans-serif" font-size="23" font-weight="600" letter-spacing="10">
    FREIGHT INTELLIGENCE
  </text>
  <line x1="176" y1="154" x2="712" y2="154" stroke="#909EAE" stroke-width="2" opacity="0.7" />
  <text x="176" y="188" fill="#E5E5E5" font-family="Avenir Next, Segoe UI, Arial, sans-serif" font-size="22" font-weight="700" letter-spacing="6">
    SMARTER · BETTER · FASTER
  </text>
</svg>
